<?xml version="1.0" encoding="UTF-8"?>
<svg width="32px" height="32px" viewBox="0 0 32 32" version="1.1" xmlns="http://www.w3.org/2000/svg" xmlns:xlink="http://www.w3.org/1999/xlink">
    <!-- Generator: Sketch 64 (93537) - https://sketch.com -->
    <title>avatar-doctor</title>
    <desc>Created with Sketch.</desc>
    <g id="Page-1" stroke="none" stroke-width="1" fill="none" fill-rule="evenodd">
        <g id="6.1-Dashboard" transform="translate(-1279.000000, -14.000000)">
            <g id="avatar-doctor" transform="translate(1280.000000, 15.000000)">
                <circle id="Oval" stroke="#8BADBA" fill="#E9EEF0" cx="15" cy="15" r="15"></circle>
                <g id="stethoscope" transform="translate(10.000000, 6.000000)" fill-rule="nonzero">
                    <g id="Group" transform="translate(2.000000, 0.000000)" fill="#C8C1C9">
                        <path d="M3.99528767,9.99627986 C2.29647489,9.99627986 0.8343379,8.8643686 0.518648402,7.30481229 C0.517041096,7.2968942 0.515835616,7.28894198 0.514995434,7.2809215 L0.0311232877,2.55832765 C-0.0311232877,1.95088737 0.18513242,1.34351536 0.624401826,0.891945392 C1.06367123,0.440375427 1.69019178,0.181365188 2.34330594,0.181365188 C2.49925114,0.181365188 2.62568037,0.299488055 2.62568037,0.445187713 C2.62568037,0.590887372 2.49925114,0.709010239 2.34330594,0.709010239 C1.8489863,0.709010239 1.37483105,0.905017065 1.04237443,1.24679181 C0.709917808,1.58856655 0.546228311,2.04825939 0.593351598,2.50798635 L1.07598174,7.21829352 C1.34611872,8.52293515 2.57183562,9.46856655 3.99528767,9.46856655 C5.41873973,9.46856655 6.64445662,8.52296928 6.91459361,7.21829352 L7.39722374,2.50798635 C7.4443105,2.04825939 7.28065753,1.58856655 6.94820091,1.24679181 C6.61574429,0.905017065 6.14155251,0.709010239 5.64726941,0.709010239 C5.4913242,0.709010239 5.36489498,0.590887372 5.36489498,0.445187713 C5.36489498,0.299488055 5.4913242,0.181365188 5.64726941,0.181365188 C6.30038356,0.181365188 6.92690411,0.440375427 7.36617352,0.891945392 C7.80544292,1.34351536 8.02169863,1.95088737 7.95945205,2.55832765 L7.47557991,7.2809215 C7.47473973,7.28894198 7.47353425,7.2968942 7.47192694,7.30481229 C7.15620091,8.8643686 5.69410046,9.99627986 3.99528767,9.99627986 Z" id="Path"></path>
                        <path d="M2.93771689,0.890443686 L2.05092237,0.890443686 C1.79557991,0.890443686 1.58860274,0.697064846 1.58860274,0.458498294 L1.58860274,0.431945392 C1.58860274,0.19337884 1.79557991,-6.06265133e-17 2.05092237,-6.06265133e-17 L2.93771689,-6.06265133e-17 C3.19305936,-6.06265133e-17 3.40003653,0.19337884 3.40003653,0.431945392 L3.40003653,0.458498294 C3.40007306,0.697064846 3.19305936,0.890443686 2.93771689,0.890443686 Z" id="Path"></path>
                        <path d="M5.93957991,0.890443686 L5.05278539,0.890443686 C4.79744292,0.890443686 4.59046575,0.697064846 4.59046575,0.458498294 L4.59046575,0.431945392 C4.59046575,0.19337884 4.79744292,-6.06265133e-17 5.05278539,-6.06265133e-17 L5.93957991,-6.06265133e-17 C6.19492237,-6.06265133e-17 6.40189954,0.19337884 6.40189954,0.431945392 L6.40189954,0.458498294 C6.40193607,0.697064846 6.19492237,0.890443686 5.93957991,0.890443686 Z" id="Path"></path>
                    </g>
                    <path d="M5.48951359,0 L5.47438897,0 L5.47438897,0.0154465312 C5.47438897,0.283365274 5.24586594,0.500536604 4.96394289,0.500536604 L4,0.500536604 L4,0.514909927 C4,0.78282867 4.22852303,1 4.51044608,1 L5.48955392,1 C5.77147697,1 6,0.78282867 6,0.514909927 L6,0.485090073 C6,0.21717133 5.77143664,0 5.48951359,0 Z" id="Path" fill="#8F818F"></path>
                    <path d="M8.48955392,0 L8.4744293,0 L8.4744293,0.0154465312 C8.4744293,0.283365274 8.24590627,0.500536604 7.96398322,0.500536604 L7,0.500536604 L7,0.514909927 C7,0.78282867 7.22852303,1 7.51044608,1 L8.48955392,1 C8.77147697,1 9,0.78282867 9,0.514909927 L9,0.485090073 C9.00004033,0.21717133 8.77147697,0 8.48955392,0 Z" id="Path" fill="#8F818F"></path>
                    <path d="M8.96527048,7.15703837 L8.89987093,7.84183701 C8.67038468,9.00083842 7.65328227,9.83958456 6.47273137,9.83958456 C5.29218046,9.83958456 4.27507805,9.00083842 4.0455918,7.84183701 L3.98019225,7.15703837 C3.97108939,7.06162527 3.88654359,6.99167363 3.79138338,7.00080068 L3.10208488,7.06698026 C3.00692467,7.07610732 2.93715843,7.1608778 2.9462613,7.2562909 L3.01629625,7.98962123 L3.02069653,8.01306193 C3.29052426,9.44341644 4.40386176,10.535531 5.78433979,10.8121044 C5.8821872,10.8317057 5.9533978,10.9165435 5.9533978,11.0166043 L5.9533978,15.4714497 C5.9533978,16.289079 5.2860671,16.9723957 4.47070568,16.9583852 C3.67875642,16.9447788 3.03866713,16.2946024 3.03866713,15.497349 L3.03866713,13.5375915 L2,13.5375915 L2,15.4654211 C2,16.8432361 3.09728152,17.9865093 4.47137747,17.99988 C5.85894298,18.0133853 6.99206493,16.8855371 6.99206493,15.497349 L6.99206493,11.0166043 C6.99206493,10.9165435 7.06324195,10.8317057 7.16112294,10.8121044 C8.54156738,10.535531 9.65493847,9.44341644 9.9247662,8.01306193 L9.92916648,7.98962123 L9.99920144,7.2562909 C10.0083043,7.1608778 9.93853806,7.07610732 9.84337785,7.06698026 L9.15407935,7.00080068 C9.05891915,6.99167363 8.97437335,7.06162527 8.96527048,7.15703837 L8.96527048,7.15703837 Z" id="Path" fill="#FC8086"></path>
                    <path d="M9.83235785,7.03304038 L9.46530426,7 L9.41627272,7.48124769 L9.41156368,7.50476109 C9.14976255,8.805667 8.14587403,9.82762155 6.85965871,10.2138021 C6.50874527,10.3191732 6.27311347,10.6288677 6.27311347,10.9750823 L6.27311347,15.0122588 C6.27311347,16.4047521 5.06048142,17.536098 3.57555175,17.5225508 C2.98307528,17.5171454 2.43887546,17.3275517 2,17.0129249 C2.48244308,17.6049491 3.23312177,17.9921094 4.08344522,17.9998796 C5.56837489,18.0134268 6.78100694,16.8820809 6.78100694,15.4895876 L6.78100694,10.9949132 C6.78100694,10.8945421 6.85717838,10.8094412 6.96192759,10.7897791 C8.43923652,10.512348 9.6307318,9.4168465 9.91949309,7.98205609 L9.92420213,7.95854269 L9.99915138,7.22293812 C10.008857,7.12722912 9.93419536,7.04219574 9.83235785,7.03304038 L9.83235785,7.03304038 Z" id="Path" fill="#FA4954"></path>
                    <circle id="Oval" fill="#C8C1C9" cx="2" cy="13" r="2"></circle>
                    <path d="M2.75647758,11 C2.87120599,11.2586899 2.93542223,11.5447534 2.93542223,11.8459327 C2.93542223,12.9999311 1.99993114,13.9354222 0.845932685,13.9354222 C0.544718946,13.9354222 0.258689851,13.871206 0,13.7564776 C0.324799862,14.4888525 1.05776018,15 1.91051046,15 C3.06450891,15 4,14.0645089 4,12.9105105 C4,12.0577602 3.48888698,11.3247999 2.75647758,11 Z" id="Path" fill="#B1ABB5"></path>
                    <circle id="Oval" fill="#B1ABB5" cx="2" cy="13" r="1"></circle>
                    <path d="M2.41229608,12 C2.48190658,12.1407443 2.52122855,12.2991303 2.52122855,12.4667623 C2.52122855,13.049117 2.04911703,13.5212285 1.46676231,13.5212285 C1.29913031,13.5212285 1.14070886,13.481942 1,13.4123315 C1.17220185,13.7604903 1.53081106,14 1.94553377,14 C2.52788848,14 3,13.5279239 3,12.9455338 C2.99996457,12.5308111 2.76041943,12.1722019 2.41229608,12 Z" id="Path" fill="#8F818F"></path>
                </g>
            </g>
        </g>
    </g>
</svg>