<?xml version="1.0" encoding="UTF-8"?>
<svg width="32px" height="32px" viewBox="0 0 32 32" version="1.1" xmlns="http://www.w3.org/2000/svg" xmlns:xlink="http://www.w3.org/1999/xlink">
    <!-- Generator: Sketch 64 (93537) - https://sketch.com -->
    <title>Group 34</title>
    <desc>Created with Sketch.</desc>
    <g id="Page-1" stroke="none" stroke-width="1" fill="none" fill-rule="evenodd">
        <g id="6.1-Dashboard" transform="translate(-1279.000000, -14.000000)">
            <g id="Group-34" transform="translate(1280.000000, 15.000000)">
                <circle id="Oval" stroke="#8BADBA" fill="#E9EEF0" cx="15" cy="15" r="15"></circle>
                <g id="settings" transform="translate(6.000000, 6.000000)" fill-rule="nonzero">
                    <path d="M18,10.4870742 L18,7.51292578 L15.5601211,7.02773438 C15.423082,6.58480078 15.2542969,6.16289063 15.0327773,5.75152734 L16.3933594,3.71598047 L14.2839844,1.60660547 L12.2484375,2.9671875 C11.8371094,2.74566797 11.4151992,2.57688281 10.9722305,2.43984375 L10.4870742,0 L7.51292578,0 L7.02773438,2.43987891 C6.58480078,2.57691797 6.16289063,2.74570312 5.75152734,2.96722266 L3.71601563,1.60664063 L1.60664063,3.71601563 L2.96722266,5.7515625 C2.74570313,6.16289062 2.57691797,6.58480078 2.43987891,7.02776953 L0,7.51292578 L0,10.4870742 L2.43987891,10.9722656 C2.57691797,11.4151992 2.74570312,11.8371094 2.96722266,12.2484727 L1.60664063,14.2839844 L3.71601563,16.3933594 L5.7515625,15.0327773 C6.16289062,15.2542969 6.58480078,15.423082 7.02776953,15.5601211 L7.51292578,18 L10.4870742,18 L10.9722656,15.5601211 C11.4151992,15.423082 11.8371094,15.2542969 12.2484727,15.0327773 L14.2840195,16.3933594 L16.3933945,14.2839844 L15.0328125,12.2484375 C15.254332,11.8371094 15.4231172,11.4151992 15.5601563,10.9722305 L18,10.4870742 Z M9,12.6914062 C6.96445312,12.6914062 5.30859375,11.0355469 5.30859375,9 C5.30859375,6.96445313 6.96445312,5.30859375 9,5.30859375 C11.0355469,5.30859375 12.6914062,6.96445312 12.6914062,9 C12.6914062,11.0355469 11.0355469,12.6914062 9,12.6914062 Z" id="Shape" fill="#395E6C"></path>
                    <path d="M15.5601211,10.9722656 C15.423082,11.4151992 15.2542969,11.8371094 15.0327773,12.2484727 L16.3933594,14.2840195 L14.2839844,16.3933945 L12.2484375,15.0328125 C11.8371094,15.254332 11.4151992,15.4231172 10.9722305,15.5601563 L10.4870742,18 L9,18 L9,12.6914062 C11.0355469,12.6914062 12.6914062,11.0355469 12.6914062,9 C12.6914062,6.96445313 11.0355469,5.30859375 9,5.30859375 L9,0 L10.4870742,0 L10.9722656,2.43987891 C11.4151992,2.57691797 11.8371094,2.74570312 12.2484727,2.96722266 L14.2839844,1.60664063 L16.3933594,3.71601563 L15.0327773,5.7515625 C15.2542969,6.16289062 15.423082,6.58480078 15.5601211,7.02776953 L18,7.51292578 L18,10.4870742 L15.5601211,10.9722656 Z" id="Path" fill="#8BADBA"></path>
                </g>
            </g>
        </g>
    </g>
</svg>