<?xml version="1.0" encoding="UTF-8"?>
<svg width="10px" height="6px" viewBox="0 0 10 6" version="1.1" xmlns="http://www.w3.org/2000/svg" xmlns:xlink="http://www.w3.org/1999/xlink">
    <!-- Generator: Sketch 64 (93537) - https://sketch.com -->
    <title>down-arrow</title>
    <desc>Created with Sketch.</desc>
    <g id="Page-1" stroke="none" stroke-width="1" fill="none" fill-rule="evenodd">
        <g id="6.1-Dashboard" transform="translate(-1187.000000, -28.000000)" fill="#8BADBA" fill-rule="nonzero">
            <g id="down-arrow" transform="translate(1187.000000, 28.000000)">
                <path d="M9.8401613,0.501472815 L9.51259766,0.166414315 C9.40950739,0.0617756366 9.27235181,0.00412938747 9.12576525,0.00412938747 C8.97925999,0.00412938747 8.8419418,0.0617756366 8.73885154,0.166414315 L5.00223579,3.96231246 L1.26131107,0.16220234 C1.1583834,0.0575636614 1.02106521,0 0.874559956,0 C0.7280547,0 0.590655209,0.0575636614 0.487646241,0.16220234 L0.160001301,0.495196146 C-0.0533337669,0.711741225 -0.0533337669,1.0644735 0.160001301,1.28101858 L4.61402125,5.82177564 C4.71694892,5.92633173 4.8541045,6 5.00191058,6 L5.00361792,6 C5.15020447,6 5.28736006,5.92624914 5.39028773,5.82177564 L9.8401613,1.29332416 C9.94325157,1.18876807 9.9998374,1.04523056 10,0.896407433 C10,0.747501721 9.94325157,0.605946318 9.8401613,0.501472815 Z" id="Path"></path>
            </g>
        </g>
    </g>
</svg>