<?xml version="1.0" encoding="UTF-8"?>
<svg width="23px" height="24px" viewBox="0 0 23 24" version="1.1" xmlns="http://www.w3.org/2000/svg" xmlns:xlink="http://www.w3.org/1999/xlink">
    <!-- Generator: Sketch 64 (93537) - https://sketch.com -->
    <title>filter</title>
    <desc>Created with Sketch.</desc>
    <g id="Page-1" stroke="none" stroke-width="1" fill="none" fill-rule="evenodd">
        <g id="6.1-Dashboard" transform="translate(-1117.000000, -14.000000)" fill="#86A3AF" fill-rule="nonzero">
            <g id="filter" transform="translate(1128.500000, 26.000000) scale(-1, 1) translate(-1128.500000, -26.000000) translate(1117.000000, 14.000000)">
                <path d="M22.0091371,1.79802343e-06 L0.990629143,1.79802343e-06 C0.619919192,-0.000710251327 0.280062723,0.210114487 0.110601997,0.545863575 C-0.0611961494,0.886133691 -0.0310438094,1.2958856 0.188437053,1.60664978 L7.88873315,12.6494868 C7.8913043,12.653294 7.89410916,12.6568633 7.89668031,12.6606705 C8.17646582,13.0451996 8.32769494,13.5108699 8.32862989,13.9896277 L8.32862989,22.9927474 C8.32699371,23.2594906 8.42983884,23.5155261 8.61449265,23.7046972 C8.79914639,23.8938684 9.05018206,24.0000018 9.31196969,24.0000018 C9.44520086,24.0000018 9.57679591,23.9728682 9.69974257,23.9209948 L14.0267181,22.2412977 C14.414491,22.1208944 14.6718376,21.7485008 14.6718376,21.2999629 L14.6718376,13.9896277 C14.6725388,13.5111079 14.8240017,13.0451996 15.1035535,12.6606705 C15.1061246,12.6568633 15.1089295,12.653294 15.1115006,12.6494868 L22.8115629,1.6061739 C23.0310438,1.29564761 23.0611961,0.886133691 22.889398,0.545863575 C22.7199373,0.210114487 22.3800808,-0.000710251327 22.0091371,1.79802343e-06 Z M14.1386791,11.9389647 C13.7085994,12.5331287 13.4760291,13.2515032 13.4746267,13.9896277 L13.4746267,21.1519573 L9.52537334,22.6848386 L9.52537334,13.9896277 C9.52397087,13.2515032 9.29140066,12.5331287 8.8610872,11.9389647 L1.38541428,1.2183135 L21.6145858,1.2183135 L14.1386791,11.9389647 Z" id="Shape"></path>
            </g>
        </g>
    </g>
</svg>