<?xml version="1.0" encoding="UTF-8"?>
<svg width="22px" height="22px" viewBox="0 0 22 22" version="1.1" xmlns="http://www.w3.org/2000/svg" xmlns:xlink="http://www.w3.org/1999/xlink">
    <!-- Generator: Sketch 64 (93537) - https://sketch.com -->
    <title>ico-login-register-user</title>
    <desc>Created with Sketch.</desc>
    <g id="Page-1" stroke="none" stroke-width="1" fill="none" fill-rule="evenodd">
        <g id="3.0-Registrar" transform="translate(-1131.000000, -379.000000)" fill-rule="nonzero">
            <g id="ico-login-register-user" transform="translate(1132.000000, 380.000000)">
                <rect id="Rectangle" stroke="#FFFFFF" x="0" y="0" width="20" height="20"></rect>
                <g id="user" fill="#8F8D8D">
                    <path d="M10,0 C4.486,0 0,4.486 0,10 C0,12.415 0.860666667,14.6326667 2.29133333,16.3626667 C2.295,16.3676667 2.29533333,16.374 2.29933333,16.3786667 C3.33233333,17.6243333 4.62966667,18.5793333 6.07533333,19.1963333 C6.092,19.2033333 6.10833333,19.211 6.125,19.218 C6.242,19.2673333 6.36033333,19.313 6.479,19.3576667 C6.52566667,19.3753333 6.57233333,19.3933333 6.61966667,19.4103333 C6.722,19.447 6.825,19.4816667 6.92866667,19.515 C6.995,19.5363333 7.06133333,19.5573333 7.12833333,19.5773333 C7.22,19.6046667 7.312,19.631 7.40466667,19.656 C7.486,19.678 7.568,19.6983333 7.65,19.718 C7.733,19.738 7.81633333,19.758 7.9,19.7756667 C7.99333333,19.7956667 8.08766667,19.8133333 8.18233333,19.8306667 C8.25833333,19.8446667 8.334,19.8593333 8.41066667,19.8716667 C8.51566667,19.8886667 8.62133333,19.902 8.72733333,19.9156667 C8.79566667,19.9243333 8.86366667,19.9343333 8.93233333,19.9416667 C9.05233333,19.9543333 9.17333333,19.9633333 9.29466667,19.9716667 C9.351,19.9756667 9.407,19.9816667 9.46366667,19.9846667 C9.64066667,19.9946667 9.81966667,20 10,20 C10.1803333,20 10.3593333,19.9946667 10.537,19.9853333 C10.5936667,19.9823333 10.6496667,19.9763333 10.706,19.9723333 C10.8273333,19.9636667 10.9483333,19.955 11.0683333,19.9423333 C11.137,19.935 11.205,19.925 11.2733333,19.9163333 C11.3793333,19.9026667 11.485,19.8893333 11.59,19.8723333 C11.6663333,19.86 11.7423333,19.8453333 11.8183333,19.8313333 C11.9126667,19.814 12.007,19.7963333 12.1006667,19.7763333 C12.1843333,19.7583333 12.2673333,19.7386667 12.3506667,19.7186667 C12.4326667,19.6986667 12.5146667,19.6783333 12.596,19.6566667 C12.6886667,19.632 12.7806667,19.6053333 12.8723333,19.578 C12.9393333,19.558 13.0056667,19.537 13.072,19.5156667 C13.1756667,19.4823333 13.2786667,19.4476667 13.381,19.411 C13.428,19.394 13.4746667,19.376 13.5216667,19.3583333 C13.6406667,19.3136667 13.7586667,19.2676667 13.8756667,19.2186667 C13.8923333,19.2116667 13.9086667,19.204 13.9253333,19.197 C15.3706667,18.58 16.6683333,17.625 17.7013333,16.3793333 C17.7053333,16.3746667 17.7056667,16.368 17.7093333,16.3633333 C19.1393333,14.6326667 20,12.415 20,10 C20,4.486 15.514,0 10,0 Z M14.0523333,18.4066667 C14.0473333,18.409 14.0426667,18.4116667 14.0376667,18.414 C13.9186667,18.4713333 13.7976667,18.5253333 13.6756667,18.578 C13.648,18.5896667 13.6206667,18.6016667 13.593,18.6133333 C13.4863333,18.658 13.3783333,18.7003333 13.2696667,18.741 C13.2243333,18.758 13.179,18.7746667 13.1333333,18.7906667 C13.037,18.825 12.9403333,18.858 12.8426667,18.8893333 C12.782,18.9086667 12.721,18.927 12.66,18.945 C12.5733333,18.971 12.4863333,18.996 12.3983333,19.0193333 C12.3243333,19.039 12.2496667,19.057 12.175,19.0746667 C12.0966667,19.0933333 12.0186667,19.1123333 11.9396667,19.129 C11.8533333,19.1473333 11.7663333,19.163 11.6796667,19.1786667 C11.6093333,19.1916667 11.5393333,19.2053333 11.4683333,19.2166667 C11.3706667,19.232 11.272,19.2443333 11.1736667,19.2566667 C11.1113333,19.2646667 11.0493333,19.274 10.9863333,19.2806667 C10.874,19.2926667 10.7606667,19.3003333 10.6476667,19.3083333 C10.5973333,19.3116667 10.5473333,19.3173333 10.4963333,19.32 C10.3313333,19.3286667 10.166,19.3333333 10,19.3333333 C9.834,19.3333333 9.66866667,19.3286667 9.504,19.32 C9.45333333,19.3173333 9.40333333,19.312 9.35266667,19.3083333 C9.23933333,19.3006667 9.12633333,19.2926667 9.014,19.2806667 C8.951,19.274 8.889,19.2646667 8.82666667,19.2566667 C8.72833333,19.2443333 8.62966667,19.232 8.532,19.2166667 C8.461,19.2053333 8.391,19.1916667 8.32066667,19.1786667 C8.23366667,19.163 8.14666667,19.147 8.06066667,19.129 C7.98166667,19.1123333 7.90333333,19.0933333 7.82533333,19.0746667 C7.75066667,19.0566667 7.676,19.039 7.602,19.0193333 C7.51433333,18.996 7.427,18.9706667 7.34033333,18.945 C7.27933333,18.927 7.21833333,18.9086667 7.15766667,18.8893333 C7.06,18.858 6.963,18.825 6.867,18.7906667 C6.82133333,18.7743333 6.776,18.7576667 6.73066667,18.741 C6.622,18.7003333 6.514,18.658 6.40733333,18.6133333 C6.37966667,18.602 6.35266667,18.59 6.325,18.5783333 C6.203,18.526 6.082,18.4716667 5.96266667,18.4143333 C5.95766667,18.412 5.953,18.4096667 5.948,18.407 C4.785,17.8443333 3.75766667,17.0456667 2.924,16.0756667 C3.56833333,13.703 5.39233333,11.7903333 7.739,11.0293333 C7.78533333,11.0576667 7.83366667,11.083 7.88133333,11.1096667 C7.90933333,11.1253333 7.937,11.142 7.96533333,11.157 C8.06466667,11.2096667 8.16533333,11.259 8.26833333,11.3033333 C8.34733333,11.338 8.429,11.3673333 8.51033333,11.3973333 C8.52633333,11.403 8.54233333,11.4093333 8.55833333,11.415 C9.01033333,11.575 9.494,11.6666667 10,11.6666667 C10.506,11.6666667 10.9896667,11.575 11.4413333,11.415 C11.4573333,11.4093333 11.4733333,11.403 11.4893333,11.3973333 C11.5706667,11.3673333 11.6523333,11.338 11.7313333,11.3033333 C11.8343333,11.259 11.935,11.2096667 12.0343333,11.157 C12.0626667,11.1416667 12.0903333,11.1253333 12.1183333,11.1096667 C12.166,11.083 12.2146667,11.0576667 12.2613333,11.029 C14.608,11.7903333 16.4316667,13.703 17.0763333,16.0753333 C16.2426667,17.045 15.2153333,17.8436667 14.0523333,18.4066667 Z M6.33333333,7.33333333 C6.33333333,5.31166667 7.97833333,3.66666667 10,3.66666667 C12.0216667,3.66666667 13.6666667,5.31166667 13.6666667,7.33333333 C13.6666667,8.61933333 12.9996667,9.751 11.9946667,10.4056667 C11.8633333,10.491 11.7266667,10.5673333 11.5863333,10.634 C11.5696667,10.642 11.5533333,10.6503333 11.5366667,10.658 C10.5713333,11.097 9.42866667,11.097 8.46333333,10.658 C8.44666667,10.6503333 8.43,10.642 8.41366667,10.634 C8.273,10.5673333 8.13666667,10.491 8.00533333,10.4056667 C7.00033333,9.751 6.33333333,8.61933333 6.33333333,7.33333333 Z M17.5763333,15.441 C16.8206667,13.2096667 15.0966667,11.4063333 12.894,10.5496667 C13.775,9.756 14.3333333,8.61 14.3333333,7.33333333 C14.3333333,4.944 12.3893333,3 10,3 C7.61066667,3 5.66666667,4.944 5.66666667,7.33333333 C5.66666667,8.61 6.225,9.756 7.10633333,10.5496667 C4.90366667,11.4066667 3.17966667,13.2096667 2.424,15.441 C1.31966667,13.908 0.666666667,12.0293333 0.666666667,10 C0.666666667,4.85366667 4.85366667,0.666666667 10,0.666666667 C15.1463333,0.666666667 19.3333333,4.85366667 19.3333333,10 C19.3333333,12.0293333 18.6803333,13.908 17.5763333,15.441 Z" id="Shape"></path>
                </g>
            </g>
        </g>
    </g>
</svg>