<?xml version="1.0" encoding="UTF-8"?>
<svg width="22px" height="19px" viewBox="0 0 22 19" version="1.1" xmlns="http://www.w3.org/2000/svg" xmlns:xlink="http://www.w3.org/1999/xlink">
    <!-- Generator: Sketch 64 (93537) - https://sketch.com -->
    <title>download</title>
    <desc>Created with Sketch.</desc>
    <g id="Page-1" stroke="none" stroke-width="1" fill="none" fill-rule="evenodd">
        <g id="5.1-Home-Histórico-detalhe" transform="translate(-1452.000000, -1776.000000)" fill="#1178C4" fill-rule="nonzero">
            <g id="download" transform="translate(1452.000000, 1776.000000)">
                <path d="M19.2878674,6.28181186 C19.2878674,6.25447269 19.2878674,6.22713353 19.2878674,6.19979436 C19.2895053,2.77734096 16.5204298,0.0015955057 13.1030027,0 C11.0244103,-0.001001715 9.08417837,1.04326327 7.93802926,2.77984705 C5.64718699,2.01403146 3.17016543,3.25304243 2.40547455,5.54725405 C2.25701341,5.99274575 2.18103115,6.45919748 2.18048517,6.92883877 C2.18048517,6.95982316 2.18048517,6.99117207 2.18048517,7.02252098 C0.62394088,7.42745958 -0.310094891,9.01941917 0.0942490081,10.5782072 C0.427296981,11.8621911 1.58377422,12.7592803 2.90845888,12.761194 L9.43619916,12.761194 C9.6372109,12.761194 9.80018602,12.5979792 9.80018602,12.3966718 C9.80018602,12.1953644 9.6372109,12.0321496 9.43619916,12.0321496 L2.90845888,12.0321496 C1.70234294,12.0249503 0.730407036,11.0399657 0.737550278,9.83207586 C0.743965546,8.74917152 1.54073277,7.83403853 2.61108162,7.68011903 C2.80363067,7.65419239 2.94190018,7.4813633 2.92520228,7.28752862 C2.91537463,7.17015247 2.90845888,7.04949562 2.90845888,6.92883877 C2.91105229,4.91303098 4.54489829,3.28097395 6.5577456,3.28357117 C7.03506887,3.28416352 7.5076148,3.37871146 7.94858488,3.56174717 C8.11570034,3.63127978 8.30847688,3.56730614 8.40102054,3.41156403 C9.9363626,0.812520713 13.2848142,-0.0479339487 15.8800405,1.48962071 C17.5423229,2.47446857 18.5613496,4.26554842 18.5598937,6.19979436 C18.5598937,6.32045121 18.5566178,6.43746284 18.5467902,6.55483899 C18.5299103,6.75095193 18.6715467,6.92505685 18.8667346,6.94815845 C20.2632612,7.12121536 21.2552619,8.39526603 21.0824591,9.7938466 C20.9248073,11.0698566 19.8437663,12.0290967 18.5598937,12.0321496 C18.4504246,12.0322863 18.3410011,12.0258616 18.2323055,12.0128299 C18.1800734,12.0064052 18.1270223,12.0130578 18.0779751,12.0321496 L12.3590136,12.0321496 C12.1580019,12.0321496 11.9950268,12.1953644 11.9950268,12.3966718 C11.9950268,12.5979792 12.1580019,12.761194 12.3590136,12.761194 L18.1959068,12.761194 C18.2237063,12.761194 18.2513693,12.757321 18.2781679,12.7498938 C18.3702565,12.7575488 18.4645291,12.761194 18.5598937,12.761194 C20.3691359,12.761194 21.8358209,11.2924429 21.8358209,9.48053976 C21.8358209,7.94950094 20.7784391,6.6220022 19.2878674,6.28181186 Z" id="Path"></path>
                <path d="M13.5702729,15.2632139 L11.1353436,17.7483473 L11.1353436,7.45619924 C11.1353436,7.25371844 10.9744938,7.08955224 10.7761035,7.08955224 C10.5777131,7.08955224 10.4168634,7.25371844 10.4168634,7.45619924 L10.4168634,17.7483473 L7.98193402,15.2632139 C7.8392259,15.1225131 7.61182692,15.1265463 7.47396853,15.2721968 C7.33952293,15.4142725 7.33952293,15.6395312 7.47396853,15.7816528 L10.5221207,18.8926526 C10.662404,19.0357825 10.8898029,19.0357825 11.0300862,18.8926526 L14.0782384,15.7816528 C14.2160968,15.6360023 14.2121451,15.4039147 14.069437,15.2632139 C13.9302315,15.1259505 13.7094784,15.1259505 13.5702729,15.2632139 Z" id="Path"></path>
            </g>
        </g>
    </g>
</svg>