<?xml version="1.0" encoding="UTF-8"?>
<svg width="21px" height="28px" viewBox="0 0 21 28" version="1.1" xmlns="http://www.w3.org/2000/svg" xmlns:xlink="http://www.w3.org/1999/xlink">
    <!-- Generator: Sketch 64 (93537) - https://sketch.com -->
    <title>002-clipboard</title>
    <desc>Created with Sketch.</desc>
    <g id="Page-1" stroke="none" stroke-width="1" fill="none" fill-rule="evenodd">
        <g id="5.0-Home-Histórico" transform="translate(-1134.000000, -380.000000)" fill="#8F8D8D" fill-rule="nonzero">
            <g id="002-clipboard" transform="translate(1134.000000, 380.000000)">
                <path d="M18.84092,2.86446252 L15.8265173,2.86446252 C15.4308064,2.05103086 14.806475,1.62241281 14.0103679,1.62241281 L12.2628046,1.62241281 C12.2032776,0.710066531 11.4325824,0 10.5018628,0 C9.57114327,0 8.80044802,0.710066531 8.74092104,1.62241281 L6.99347068,1.62241281 C6.22733822,1.62241281 5.59595069,2.06189879 5.19442548,2.86446252 L2.15908003,2.86446252 C0.96720759,2.8657765 0.00133769823,3.81452167 0,4.98526241 L0,25.8792001 C0.00133769823,27.0499408 0.96720759,27.998686 2.15908003,28 L18.84092,28 C20.0327924,27.998686 20.9986623,27.0499408 21,25.8792001 L21,4.98526241 C20.9986623,3.81452167 20.0327924,2.8657765 18.84092,2.86446252 L18.84092,2.86446252 Z M5.72397813,3.32646065 C6.01299951,2.63717851 6.44009634,2.28768568 6.99347068,2.28768568 L9.09440774,2.28768568 C9.19371106,2.28766329 9.28800167,2.24483514 9.35233613,2.17053091 C9.41667058,2.09622669 9.44456679,1.99793297 9.42864516,1.9016522 C9.3600396,1.48452185 9.54829058,1.06688591 9.90881621,0.836389823 C10.2693418,0.605893735 10.7343274,0.605893735 11.094853,0.836389823 C11.4553786,1.06688591 11.6436296,1.48452185 11.5750241,1.9016522 C11.5591008,1.99794253 11.5870042,2.09624569 11.6513514,2.17055203 C11.7156985,2.24485836 11.8100047,2.28767955 11.9093179,2.28768568 L14.010255,2.28768568 C14.5726048,2.28768568 14.9995323,2.62558974 15.2793524,3.29202704 L15.8767009,5.06998794 L5.1260087,5.0715405 L5.72397813,3.32646065 Z M16.6667679,5.29832547 L16.6220599,5.16524872 L18.0060885,5.16524872 L18.0060885,24.664043 L2.99391152,24.664043 L2.99391152,5.16524872 L4.37940776,5.16524872 L4.33390948,5.29838092 C4.29912213,5.39990231 4.31622694,5.5116664 4.37986442,5.59865388 C4.4435019,5.68564136 4.54588646,5.73720994 4.65493772,5.73720152 L16.3451752,5.73542716 C16.4538863,5.73546526 16.556009,5.68424399 16.6197236,5.59772304 C16.6834382,5.51120209 16.7010001,5.3998982 16.6669373,5.29849182 L16.6667679,5.29832547 Z M20.3226061,25.8792001 C20.3216729,26.6826242 19.6588458,27.3336995 18.84092,27.3346162 L2.15908003,27.3346162 C1.34115423,27.3336995 0.678327106,26.6826242 0.677393862,25.8792001 L0.677393862,4.98526241 C0.678327106,4.1818383 1.34115423,3.53076299 2.15908003,3.52984629 L4.93972539,3.52984629 L4.60740725,4.50019763 L2.65521459,4.50019763 C2.46815744,4.50019763 2.31651766,4.64914886 2.31651766,4.83288952 L2.31651766,24.9967349 C2.31651766,25.1804755 2.46815744,25.3294268 2.65521459,25.3294268 L18.3447854,25.3294268 C18.5318426,25.3294268 18.6834823,25.1804755 18.6834823,24.9967349 L18.6834823,4.83261228 C18.6834823,4.64887162 18.5318426,4.49992039 18.3447854,4.49992039 L16.3985199,4.49992039 L16.0725806,3.52956905 L18.84092,3.52956905 C19.6588458,3.53048575 20.3216729,4.18156105 20.3226061,4.98498516 L20.3226061,25.8792001 Z" id="Shape"></path>
                <path d="M4.38419671,18.2058824 L8.61580329,18.2058824 C8.82798927,18.2058824 9,18.1137057 9,18 C9,17.8862943 8.82798927,17.7941176 8.61580329,17.7941176 L4.38419671,17.7941176 C4.17201073,17.7941176 4,17.8862943 4,18 C4,18.1137057 4.17201073,18.2058824 4.38419671,18.2058824 Z" id="Path"></path>
                <path d="M12.3841967,13.2058824 L16.6158033,13.2058824 C16.8279893,13.2058824 17,13.1137057 17,13 C17,12.8862943 16.8279893,12.7941176 16.6158033,12.7941176 L12.3841967,12.7941176 C12.1720107,12.7941176 12,12.8862943 12,13 C12,13.1137057 12.1720107,13.2058824 12.3841967,13.2058824 Z" id="Path"></path>
                <path d="M16.6611669,19.7941176 L5.3388331,19.7941176 C5.15170074,19.7941176 5,19.8862943 5,20 C5,20.1137057 5.15170074,20.2058824 5.3388331,20.2058824 L16.6611669,20.2058824 C16.8482993,20.2058824 17,20.1137057 17,20 C17,19.8862943 16.8482993,19.7941176 16.6611669,19.7941176 L16.6611669,19.7941176 Z" id="Path"></path>
                <path d="M16.6611669,20.7941176 L5.3388331,20.7941176 C5.15170074,20.7941176 5,20.8862943 5,21 C5,21.1137057 5.15170074,21.2058824 5.3388331,21.2058824 L16.6611669,21.2058824 C16.8482993,21.2058824 17,21.1137057 17,21 C17,20.8862943 16.8482993,20.7941176 16.6611669,20.7941176 L16.6611669,20.7941176 Z" id="Path"></path>
                <path d="M16.6611669,14.7941176 L5.3388331,14.7941176 C5.15170074,14.7941176 5,14.8862943 5,15 C5,15.1137057 5.15170074,15.2058824 5.3388331,15.2058824 L16.6611669,15.2058824 C16.8482993,15.2058824 17,15.1137057 17,15 C17,14.8862943 16.8482993,14.7941176 16.6611669,14.7941176 L16.6611669,14.7941176 Z" id="Path"></path>
                <path d="M16.6611669,11.7941176 L5.3388331,11.7941176 C5.15170074,11.7941176 5,11.8862943 5,12 C5,12.1137057 5.15170074,12.2058824 5.3388331,12.2058824 L16.6611669,12.2058824 C16.8482993,12.2058824 17,12.1137057 17,12 C17,11.8862943 16.8482993,11.7941176 16.6611669,11.7941176 L16.6611669,11.7941176 Z" id="Path"></path>
                <path d="M16.6611669,15.7941176 L5.3388331,15.7941176 C5.15170074,15.7941176 5,15.8862943 5,16 C5,16.1137057 5.15170074,16.2058824 5.3388331,16.2058824 L16.6611669,16.2058824 C16.8482993,16.2058824 17,16.1137057 17,16 C17,15.8862943 16.8482993,15.7941176 16.6611669,15.7941176 L16.6611669,15.7941176 Z" id="Path"></path>
                <path d="M16.6611669,9.79411765 L5.3388331,9.79411765 C5.15170074,9.79411765 5,9.88629432 5,10 C5,10.1137057 5.15170074,10.2058824 5.3388331,10.2058824 L16.6611669,10.2058824 C16.8482993,10.2058824 17,10.1137057 17,10 C17,9.88629432 16.8482993,9.79411765 16.6611669,9.79411765 L16.6611669,9.79411765 Z" id="Path"></path>
                <path d="M16.6611669,8.79411765 L5.3388331,8.79411765 C5.15170074,8.79411765 5,8.88629432 5,9 C5,9.11370568 5.15170074,9.20588235 5.3388331,9.20588235 L16.6611669,9.20588235 C16.8482993,9.20588235 17,9.11370568 17,9 C17,8.88629432 16.8482993,8.79411765 16.6611669,8.79411765 L16.6611669,8.79411765 Z" id="Path"></path>
                <path d="M16.6611669,10.7941176 L5.3388331,10.7941176 C5.15170074,10.7941176 5,10.8862943 5,11 C5,11.1137057 5.15170074,11.2058824 5.3388331,11.2058824 L16.6611669,11.2058824 C16.8482993,11.2058824 17,11.1137057 17,11 C17,10.8862943 16.8482993,10.7941176 16.6611669,10.7941176 L16.6611669,10.7941176 Z" id="Path"></path>
            </g>
        </g>
    </g>
</svg>