<?xml version="1.0" encoding="UTF-8"?>
<svg width="22px" height="22px" viewBox="0 0 22 22" version="1.1" xmlns="http://www.w3.org/2000/svg" xmlns:xlink="http://www.w3.org/1999/xlink">
    <!-- Generator: Sketch 64 (93537) - https://sketch.com -->
    <title>ico-login-register-email</title>
    <desc>Created with Sketch.</desc>
    <g id="Page-1" stroke="none" stroke-width="1" fill="none" fill-rule="evenodd">
        <g id="3.0-Registrar" transform="translate(-1132.000000, -454.000000)" fill-rule="nonzero">
            <g id="ico-login-register-email" transform="translate(1133.000000, 455.000000)">
                <path d="M18.076869,4 L1.92309585,4 C1.41537028,4 1,4.4296934 1,4.95489038 L1,15.4588664 C1,15.984027 1.41537028,16.4137931 1.92309585,16.4137931 L18.0769041,16.4137931 C18.5845594,16.4137931 19,15.9840997 19,15.4588664 L19,4.95489038 C19,4.4296934 18.5845946,4 18.076869,4 Z M17.7304751,4.71613141 L10.5309814,10.3024001 C10.4015363,10.4043046 10.2028336,10.4680585 9.99994727,10.4671233 C9.7970961,10.4680585 9.59842852,10.4043046 9.4689483,10.3024001 L2.26945455,4.71613141 L17.7304751,4.71613141 Z M13.8847405,10.6709945 L17.8078187,15.6842781 C17.8117562,15.6892969 17.8165726,15.6931156 17.8207562,15.6976617 L2.17920863,15.6976617 C2.18335706,15.6928974 2.18820862,15.6892969 2.19214611,15.6842781 L6.11522438,10.6709945 C6.23542337,10.517265 6.21264216,10.2918897 6.06375573,10.1672549 C5.91515056,10.0429112 5.6972877,10.0664779 5.57705356,10.2202438 L1.69229552,15.1845754 L1.69229552,5.16375446 L9.05378896,10.8752762 C9.33050326,11.0884681 9.66715885,11.1822987 9.99991211,11.1832443 C10.3322083,11.182517 10.6691452,11.0886863 10.9460353,10.8752762 L18.3075287,5.16375446 L18.3075287,15.1845027 L14.4228761,10.2202438 C14.302642,10.0665143 14.0845682,10.0428748 13.936174,10.1672549 C13.7873227,10.2915987 13.7644712,10.517265 13.8847405,10.6709945 Z" id="Shape" fill="#8F8D8D"></path>
                <rect id="Rectangle" stroke="#FFFFFF" x="0" y="0" width="20" height="20"></rect>
            </g>
        </g>
    </g>
</svg>