<?xml version="1.0" encoding="UTF-8"?>
<svg width="16px" height="19px" viewBox="0 0 16 19" version="1.1" xmlns="http://www.w3.org/2000/svg" xmlns:xlink="http://www.w3.org/1999/xlink">
    <!-- Generator: Sketch 64 (93537) - https://sketch.com -->
    <title>bin</title>
    <desc>Created with Sketch.</desc>
    <g id="Page-1" stroke="none" stroke-width="1" fill="none" fill-rule="evenodd">
        <g id="5.1-Home-Histórico-detalhe" transform="translate(-1455.000000, -1836.000000)" fill="#9B9B9B" fill-rule="nonzero">
            <g id="bin" transform="translate(1455.000000, 1836.000000)">
                <path d="M10.326087,6.88405797 C10.097945,6.88405797 9.91304348,7.08458912 9.91304348,7.33201581 L9.91304348,15.798419 C9.91304348,16.0456707 10.097945,16.2463768 10.326087,16.2463768 C10.5542289,16.2463768 10.7391304,16.0456707 10.7391304,15.798419 L10.7391304,7.33201581 C10.7391304,7.08458912 10.5542289,6.88405797 10.326087,6.88405797 Z" id="Path"></path>
                <path d="M5.0942029,6.88405797 C4.86606089,6.88405797 4.68115942,7.08458912 4.68115942,7.33201581 L4.68115942,15.798419 C4.68115942,16.0456707 4.86606089,16.2463768 5.0942029,16.2463768 C5.32234486,16.2463768 5.50724638,16.0456707 5.50724638,15.798419 L5.50724638,7.33201581 C5.50724638,7.08458912 5.32234486,6.88405797 5.0942029,6.88405797 Z" id="Path"></path>
                <path d="M1.26285256,5.65652301 L1.26285256,16.6194524 C1.26285256,17.2674285 1.5002838,17.8759491 1.91505035,18.3125682 C2.32790632,18.750404 2.90246572,18.9989571 3.50377298,19 L11.9165169,19 C12.5179979,18.9989571 13.0925572,18.750404 13.5052395,18.3125682 C13.9200061,17.8759491 14.1574374,17.2674285 14.1574374,16.6194524 L14.1574374,5.65652301 C14.9819335,5.43751819 15.5161973,4.64041014 15.4059055,3.79376531 C15.2954401,2.94729432 14.5748092,2.31409228 13.7216546,2.31391848 L11.4451282,2.31391848 L11.4451282,1.75771576 C11.4477334,1.28998402 11.2629296,0.840850331 10.9320543,0.510431165 C10.601179,0.180185801 10.1516748,-0.00370872203 9.68428087,5.67072746e-05 L5.73600902,5.67072746e-05 C5.26861505,-0.00370872203 4.81911093,0.180185801 4.48823562,0.510431165 C4.15736031,0.840850331 3.97255645,1.28998402 3.97516178,1.75771576 L3.97516178,2.31391848 L1.69863533,2.31391848 C0.845480688,2.31409228 0.124849876,2.94729432 0.0143843689,3.79376531 C-0.0959073724,4.64041014 0.438356405,5.43751819 1.26285256,5.65652301 Z M11.9165169,18.1100757 L3.50377298,18.1100757 C2.74354134,18.1100757 2.15213428,17.4565375 2.15213428,16.6194524 L2.15213428,5.695631 L13.2681557,5.695631 L13.2681557,16.6194524 C13.2681557,17.4565375 12.6767485,18.1100757 11.9165169,18.1100757 Z M4.86444349,1.75771576 C4.86149077,1.52602258 4.95250319,1.30302004 5.1168119,1.13946169 C5.2809469,0.975903336 5.50430943,0.886041801 5.73600902,0.89003952 L9.68428087,0.89003952 C9.91598042,0.886041801 10.139343,0.975903336 10.303478,1.13946169 C10.4677867,1.30284624 10.5587991,1.52602258 10.5558464,1.75771576 L10.5558464,2.31391848 L4.86444349,2.31391848 L4.86444349,1.75771576 Z M1.69863533,3.20384282 L13.7216546,3.20384282 C14.1636901,3.20384282 14.5220081,3.56241977 14.5220081,4.00477474 C14.5220081,4.4471297 14.1636901,4.80570665 13.7216546,4.80570665 L1.69863533,4.80570665 C1.25659976,4.80570665 0.89828179,4.4471297 0.89828179,4.00477474 C0.89828179,3.56241977 1.25659976,3.20384282 1.69863533,3.20384282 Z" id="Shape"></path>
                <path d="M7.57246377,6.88405797 C7.34432176,6.88405797 7.15942029,7.08458912 7.15942029,7.33201581 L7.15942029,15.798419 C7.15942029,16.0456707 7.34432176,16.2463768 7.57246377,16.2463768 C7.80060573,16.2463768 7.98550725,16.0456707 7.98550725,15.798419 L7.98550725,7.33201581 C7.98550725,7.08458912 7.80060573,6.88405797 7.57246377,6.88405797 Z" id="Path"></path>
            </g>
        </g>
    </g>
</svg>