<?xml version="1.0" encoding="UTF-8"?>
<svg width="22px" height="22px" viewBox="0 0 22 22" version="1.1" xmlns="http://www.w3.org/2000/svg" xmlns:xlink="http://www.w3.org/1999/xlink">
    <!-- Generator: Sketch 64 (93537) - https://sketch.com -->
    <title>ico-login-register-password</title>
    <desc>Created with Sketch.</desc>
    <g id="Page-1" stroke="none" stroke-width="1" fill="none" fill-rule="evenodd">
        <g id="3.0-Registrar" transform="translate(-1132.000000, -526.000000)" fill-rule="nonzero">
            <g id="ico-login-register-password" transform="translate(1133.000000, 527.000000)">
                <g id="password" transform="translate(2.000000, 1.000000)" fill="#8F8D8D">
                    <path d="M15.1289834,6.50846834 L14.0066445,6.50846834 L14.0066445,4.4872975 C14.0066445,2.00903152 11.5412358,0 8.5,0 C5.45876421,0 2.99335548,2.00903152 2.99335548,4.4872975 L2.99335548,6.50846834 L1.87101661,6.50846834 C0.838198727,6.50948272 0.00124481018,7.19150626 0,8.03313697 L0,17.4751473 C0.00112034952,18.3168499 0.838110646,18.9989854 1.87101661,19 L15.1289834,19 C16.1618378,18.9988842 16.9987555,18.3168079 17,17.4751473 L17,8.03313697 C16.9987552,7.19150626 16.1618013,6.50948272 15.1289834,6.50846834 L15.1289834,6.50846834 Z M3.78405316,4.4872975 C3.78405316,2.3648851 5.89545448,0.644329897 8.5,0.644329897 C11.1045455,0.644329897 13.2159468,2.3648851 13.2159468,4.4872975 L13.2159468,6.50846834 L12.4252492,6.50846834 L12.4252492,4.4872975 C12.4252492,2.72073867 10.6678553,1.28865979 8.5,1.28865979 C6.33214474,1.28865979 4.57475083,2.72073867 4.57475083,4.4872975 L4.57475083,6.50846834 L3.78405316,6.50846834 L3.78405316,4.4872975 Z M5.3654485,6.50846834 L5.3654485,4.4872975 C5.3654485,3.07659225 6.76883501,1.93298969 8.5,1.93298969 C10.231165,1.93298969 11.6345515,3.07659225 11.6345515,4.4872975 L11.6345515,6.50846834 L5.3654485,6.50846834 Z M16.2093023,17.4751473 C16.2085558,17.9611225 15.725354,18.3549601 15.1289834,18.3556701 L1.87101661,18.3556701 C1.27464601,18.3549601 0.791444214,17.9611225 0.790697674,17.4751473 L0.790697674,8.03313697 C0.791444493,7.54719161 1.27468255,7.15340681 1.87101661,7.15279823 L15.1289834,7.15279823 C15.7253174,7.15340681 16.2085555,7.54719161 16.2093023,8.03313697 L16.2093023,17.4751473 Z" id="Shape"></path>
                    <path d="M10.1199095,9.58019944 C9.43765618,9.00781797 8.46951241,8.84376999 7.61636984,9.15598496 C6.76322728,9.46819993 6.1703253,10.2035262 6.08317444,11.0574778 C6.00629651,11.7846358 6.31007,12.5016555 6.89836444,12.981633 C7.03607631,13.0876664 7.1177208,13.2445638 7.12204329,13.4114799 L7.12204329,14.7090228 C7.12204329,15.4220098 7.73919193,16 8.50048336,16 C9.26177479,16 9.87892343,15.4220098 9.87892343,14.7090228 L9.87892343,13.424201 C9.88343963,13.2518493 9.96653488,13.0895566 10.1072029,12.9783501 C10.6271877,12.5487475 10.9261135,11.9313428 10.9285567,11.2819478 C10.93097,10.6325528 10.6366687,10.0132024 10.1199095,9.58019944 Z M9.60003687,12.4399642 C9.29407748,12.6874938 9.11638631,13.0461824 9.11214971,13.4248165 L9.11214971,14.7102539 C9.11214971,15.0266334 8.83829736,15.2831096 8.50048336,15.2831096 C8.16266936,15.2831096 7.88881701,15.0266334 7.88881701,14.7102539 L7.88881701,13.4120955 C7.88381862,13.0388542 7.70759367,12.6856704 7.40509233,12.4426315 C7.00232868,12.1137442 6.79455112,11.622557 6.8475383,11.1245709 C6.92941544,10.397338 7.53551556,9.81881345 8.31032348,9.72833764 C8.37427304,9.72173875 8.43855676,9.71838262 8.50289322,9.71827593 C8.91150226,9.71705056 9.30594183,9.85845128 9.60923816,10.1148922 C9.96280032,10.411143 10.16419,10.8348725 10.1626086,11.2791791 C10.1610083,11.7234857 9.95658884,12.1459408 9.60091318,12.4399642 L9.60003687,12.4399642 Z" id="Shape"></path>
                </g>
                <rect id="Rectangle" stroke="#FFFFFF" stroke-width="0.1" x="0" y="0" width="20" height="20"></rect>
            </g>
        </g>
    </g>
</svg>