<?xml version="1.0" encoding="UTF-8"?>
<svg width="19px" height="12px" viewBox="0 0 19 12" version="1.1" xmlns="http://www.w3.org/2000/svg" xmlns:xlink="http://www.w3.org/1999/xlink">
    <!-- Generator: Sketch 64 (93537) - https://sketch.com -->
    <title>eye</title>
    <desc>Created with Sketch.</desc>
    <g id="Page-1" stroke="none" stroke-width="1" fill="none" fill-rule="evenodd">
        <g id="1.0-Login" transform="translate(-1491.000000, -462.000000)" fill="#C3C5C5" fill-rule="nonzero">
            <g id="eye" transform="translate(1491.000000, 462.000000)">
                <path d="M18.8792643,5.63379902 C18.7095255,5.4037122 14.6653061,0.5 9.5,0.5 C4.33469385,0.5 0.290121944,5.4037122 0.120568713,5.63357838 C-0.0401895709,5.85186116 -0.0401895709,6.14791821 0.120568713,6.36620098 C0.290121944,6.5962878 4.33461036,12 9.4999165,12 C14.6652227,12 18.7095255,6.59625102 18.8792643,6.36638484 C19.0402452,6.14813884 19.0402452,5.85186116 18.8792643,5.63379902 Z M9.4999165,10.758627 C5.69511825,10.758627 2.39975898,7.17207481 1.42426199,5.99957711 C2.39849726,4.82604978 5.68703766,2 9.5,2 C13.3046127,2 16.5996658,4.82730006 17.575571,6.00042289 C16.6013357,7.17391344 13.3128788,10.758627 9.4999165,10.758627 Z" id="Shape"></path>
                <path d="M9.5,3 C7.57013577,3 6,4.57013577 6,6.5 C6,8.42986423 7.57013577,10 9.5,10 C11.4298642,10 13,8.42986423 13,6.5 C13,4.57013577 11.4298642,3 9.5,3 Z M9.5,8.83331029 C8.21335473,8.83331029 7.16668971,7.78661071 7.16668971,6.5 C7.16668971,5.21338929 8.21338929,4.16668971 9.5,4.16668971 C10.7866107,4.16668971 11.8333103,5.21338929 11.8333103,6.5 C11.8333103,7.78661071 10.7866453,8.83331029 9.5,8.83331029 Z" id="Shape"></path>
            </g>
        </g>
    </g>
</svg>