<?xml version="1.0" encoding="UTF-8"?>
<svg width="20px" height="19px" viewBox="0 0 20 19" version="1.1" xmlns="http://www.w3.org/2000/svg" xmlns:xlink="http://www.w3.org/1999/xlink">
    <!-- Generator: Sketch 64 (93537) - https://sketch.com -->
    <title>logout</title>
    <desc>Created with Sketch.</desc>
    <g id="Page-1" stroke="none" stroke-width="1" fill="none" fill-rule="evenodd">
        <g id="4.0-Home-Primeiro-Acesso" transform="translate(-1609.000000, -160.000000)" fill="#9B9B9B" fill-rule="nonzero">
            <g id="Group-10" transform="translate(1546.000000, 146.000000)">
                <g id="Group-7" transform="translate(22.000000, 14.000000)">
                    <g id="logout" transform="translate(41.500000, 0.000000)">
                        <path d="M12.923525,7.43479271 C13.1536469,7.43479271 13.3404255,7.24973607 13.3404255,7.02173576 L13.3404255,2.06520729 C13.3404255,0.926870825 12.4057508,0 11.2559621,0 L2.08442439,0 C0.934674766,0 0,0.926870825 0,2.06520729 L0,16.9347927 C0,18.0731292 0.934674766,19 2.08442439,19 L11.2559621,19 C12.4057508,19 13.3404255,18.0731292 13.3404255,16.9347927 L13.3404255,11.9782642 C13.3404255,11.7502639 13.1536078,11.5652073 12.9234859,11.5652073 C12.693364,11.5652073 12.5066245,11.7502639 12.5066245,11.9782642 L12.5066245,16.9347927 C12.5066245,17.6179805 11.945507,18.1739248 11.2559621,18.1739248 L2.08442439,18.1739248 C1.39487946,18.1739248 0.83376194,17.6179805 0.83376194,16.9347927 L0.83376194,2.06520729 C0.83376194,1.38201954 1.39487946,0.826075171 2.08442439,0.826075171 L11.2559621,0.826075171 C11.945507,0.826075171 12.5066245,1.38201954 12.5066245,2.06520729 L12.5066245,7.02173576 C12.5066245,7.24973607 12.6934031,7.43479271 12.923525,7.43479271 Z" id="Path"></path>
                        <path d="M18.5838422,8.89361702 L5.26722163,8.89361702 C5.0375097,8.89361702 4.85106383,9.07473887 4.85106383,9.29789129 C4.85106383,9.52104371 5.0375097,9.70212766 5.26722163,9.70212766 L18.5838422,9.70212766 C18.8135541,9.70212766 19,9.52100581 19,9.29785339 C19,9.07470097 18.8135541,8.89361702 18.5838422,8.89361702 Z" id="Path"></path>
                        <path d="M18.881741,9.01248076 L16.4559153,6.58635856 C16.2982367,6.42866062 16.0418951,6.42866062 15.8842164,6.58635856 C15.7265378,6.74405651 15.7265378,7.00042939 15.8842164,7.15812733 L18.0237947,9.29796711 L15.8842164,11.4378069 C15.7265378,11.5955048 15.7265378,11.8518777 15.8842164,12.0095757 C15.9634727,12.0880076 16.0669493,12.1276596 16.1704639,12.1276596 C16.2739784,12.1276596 16.377455,12.0880455 16.4559153,12.0104096 L18.881741,9.58428744 C19.0394197,9.42655159 19.0394197,9.17017871 18.881741,9.01248076 Z" id="Path"></path>
                    </g>
                </g>
            </g>
        </g>
    </g>
</svg>