<?xml version="1.0" encoding="UTF-8"?>
<svg width="189px" height="42px" viewBox="0 0 189 42" version="1.1" xmlns="http://www.w3.org/2000/svg" xmlns:xlink="http://www.w3.org/1999/xlink">
    <!-- Generator: Sketch 64 (93537) - https://sketch.com -->
    <title>logo-heart-care</title>
    <desc>Created with Sketch.</desc>
    <g id="Page-1" stroke="none" stroke-width="1" fill="none" fill-rule="evenodd">
        <g id="1.0-Login" transform="translate(-866.000000, -914.000000)" fill-rule="nonzero">
            <g id="logo-heart-care" transform="translate(866.000000, 914.000000)">
                <g id="ico">
                    <path d="M42,40.6300303 L39.963973,29.557338 C41.127873,26.9412412 41.7899489,24.0505088 41.7899489,21 C41.7899489,9.40177835 32.4346954,0 20.8952937,0 C9.35525356,0 0,9.40177835 0,21 C0,32.5982217 9.35525356,42 20.8952937,42 C24.9699015,42 28.7597592,40.8090567 31.9743707,38.7820149 L42,40.6300303 Z" id="Shape" fill="#FD404B"></path>
                    <path d="M10.6981132,18.9873863 C10.6981132,15.4363501 13.5452784,12.5607477 17.058189,12.5607477 C18.836708,12.5607477 20.4393575,13.3001698 21.5943396,14.492682 C22.7480427,13.3001698 24.3526108,12.5607477 26.1311297,12.5607477 C29.6440404,12.5607477 32.490566,15.4363501 32.490566,18.9873863 C32.490566,20.7163673 31.8113905,22.2837613 30.7107681,23.4387852 L21.6205601,32.5794393 L12.3001233,23.2416491 C12.1990783,23.122721 11.935594,22.7853274 11.935594,22.7853274 C11.1598502,21.7188531 10.6981132,20.4067666 10.6981132,18.9873863 Z" id="Shape" fill="#FFFFFF"></path>
                </g>
                <g id="lettering" transform="translate(56.000000, 12.000000)" fill="#0EAA97">
                    <g id="Group">
                        <polygon id="Shape" points="15.6440678 0.0968216263 15.6440678 18.3552516 12.6555696 18.3552516 12.6555696 10.3063531 3.18799035 10.3063531 3.18799035 18.3552516 0.2259734 18.3552516 0.2259734 0.0968216263 3.18799035 0.0968216263 3.18799035 7.73439991 12.6555696 7.73439991 12.6555696 0.0968216263"></polygon>
                        <path d="M25.7729724,18.6124126 C24.6974802,18.6124126 23.718733,18.4280395 22.8374367,18.0596367 C21.9554343,17.6912338 21.2019542,17.1896154 20.5762904,16.5551247 C19.9502734,15.9209774 19.4654899,15.1838284 19.1215866,14.3436776 C18.7776833,13.5038702 18.6060848,12.6122185 18.6060848,11.6694093 C18.6060848,10.7266002 18.7780364,9.83048512 19.1215866,8.98175087 C19.4651368,8.13301661 19.9502734,7.38728408 20.5762904,6.74455329 C21.2016011,6.10147915 21.9554343,5.596084 22.8374367,5.2273378 C23.718733,4.85893495 24.7059542,4.67456185 25.7994536,4.67456185 C26.8745927,4.67456185 27.849103,4.86339836 28.7219253,5.24038469 C29.5947475,5.61771436 30.3394005,6.11933279 30.9565903,6.74489663 C31.5734271,7.37080381 32.0451466,8.09936938 32.3713957,8.93059334 C32.6972917,9.76250398 32.8607693,10.6321819 32.8607693,11.5410005 C32.8607693,11.747004 32.8515891,11.9396172 32.834288,12.1198702 C32.8166339,12.2997799 32.7986266,12.4501625 32.7813255,12.5699878 L21.700508,12.5699878 C21.7534705,13.1701446 21.8989409,13.710217 22.1369192,14.190205 C22.3748974,14.6701931 22.6831392,15.0859767 23.0627039,15.437556 C23.4415625,15.7887919 23.8733835,16.0593431 24.3585201,16.2474929 C24.8433037,16.4363294 25.3503315,16.530061 25.8792505,16.530061 C26.2669361,16.530061 26.6503847,16.4830235 27.0295963,16.3889486 C27.4084549,16.2948737 27.7569482,16.1571947 28.0740171,15.977285 C28.3914392,15.7977187 28.6731997,15.5790117 28.9203581,15.3218507 C29.1671635,15.0646897 29.3610063,14.7817783 29.5022397,14.4731164 L31.9883001,15.1670048 C31.5123437,16.1788251 30.7232022,17.0055856 29.6212288,17.6490031 C28.5189023,18.2907039 27.2361502,18.6124126 25.7729724,18.6124126 Z M29.977843,10.6146716 C29.9248805,10.0488488 29.7794101,9.52628668 29.5414319,9.04595528 C29.3034537,8.56631055 28.9990958,8.15876704 28.6290643,7.82435476 C28.2586798,7.48994247 27.8265057,7.22900476 27.3332481,7.04016825 C26.8396375,6.85167509 26.3191925,6.75725683 25.7729724,6.75725683 C25.2263992,6.75725683 24.7105443,6.85167509 24.2257608,7.04016825 C23.7406241,7.22900476 23.3133932,7.49028581 22.9433617,7.82435476 C22.5729772,8.15876704 22.2732094,8.56631055 22.0440582,9.04595528 C21.8149071,9.52594334 21.6740268,10.0488488 21.6210643,10.6146716 L29.977843,10.6146716 Z" id="Shape"></path>
                        <path d="M38.9161502,18.6124126 C38.2459979,18.6124126 37.624571,18.5052908 37.0518697,18.2907039 C36.4784622,18.0768036 35.9848516,17.7808453 35.5710378,17.4035157 C35.1565178,17.0265293 34.8302687,16.5808752 34.5926436,16.0662099 C34.3546653,15.5518879 34.2356762,14.9949919 34.2356762,14.3948351 C34.2356762,13.7603445 34.3765565,13.1859381 34.6586702,12.6716162 C34.9404307,12.1572942 35.3418866,11.7116401 35.8619785,11.333967 C36.3817173,10.9569807 36.9992603,10.6654858 37.713195,10.4598257 C38.4271297,10.2538222 39.2159181,10.1511638 40.0802663,10.1511638 C40.7324114,10.1511638 41.3760825,10.2071281 42.0109266,10.31837 C42.6454175,10.4299552 43.2181188,10.5799944 43.7297367,10.7684875 L43.7297367,9.84284533 C43.7297367,8.84853529 43.438796,8.07293227 42.8569145,7.51569291 C42.275033,6.95879689 41.4375191,6.6796622 40.3447258,6.6796622 C39.6039568,6.6796622 38.876958,6.81287777 38.1626702,7.07827889 C37.4487355,7.3443667 36.7125565,7.7254731 35.9544864,8.22262811 L35.0551829,6.42250121 C36.8357826,5.25686497 38.6869991,4.67387517 40.6088322,4.67387517 C42.5130112,4.67387517 43.9938431,5.1456231 45.0516811,6.08843227 C46.1095191,7.03158478 46.6384381,8.38605753 46.6384381,10.1515072 L46.6384381,15.0118155 C46.6384381,15.3376443 46.6998746,15.5690548 46.8234538,15.7060471 C46.9466799,15.8433828 47.1581769,15.9206341 47.4579447,15.9374577 L47.4579447,18.3549083 C47.1758311,18.4060658 46.9156086,18.4403997 46.6779834,18.45791 C46.4400052,18.4747337 46.2239181,18.4833171 46.0300753,18.4833171 C45.4654949,18.4486399 45.038264,18.3037508 44.7473232,18.0465898 C44.4563825,17.7894288 44.2756037,17.446433 44.204987,17.0179458 L44.1255433,16.1692116 C43.5080003,16.9578615 42.7456932,17.5624817 41.8379157,17.982042 C40.9301382,18.4022891 39.956334,18.6124126 38.9161502,18.6124126 Z M39.7095287,16.5293743 C40.4146363,16.5293743 41.0801986,16.4054289 41.7062156,16.156508 C42.3318794,15.9082739 42.8212531,15.561158 43.1739834,15.1151606 C43.5440149,14.806842 43.7293837,14.4810132 43.7293837,14.1380175 L43.7293837,12.3632977 C43.235773,12.1748045 42.711091,12.0288854 42.1556908,11.9265703 C41.6002905,11.8235686 41.0583075,11.7720677 40.5293885,11.7720677 C39.4888516,11.7720677 38.6386267,11.9907747 37.9773014,12.4278454 C37.3159761,12.8649161 36.98549,13.4437858 36.98549,14.1637679 C36.98549,14.8322491 37.2411224,15.3942952 37.7523872,15.8481895 C38.2636521,16.3020838 38.9161502,16.5293743 39.7095287,16.5293743 Z" id="Shape"></path>
                        <path d="M57.9568807,7.3488301 C56.8284261,7.38350735 55.8320246,7.63586159 54.9683825,8.10726618 C54.1043874,8.5790141 53.4783704,9.2516154 53.0910379,10.1257567 L53.0910379,18.3549083 L50.1819835,18.3549083 L50.1819835,4.90562907 L52.8795409,4.90562907 L52.8795409,7.9143096 C53.3727985,6.98866739 54.0037586,6.23435138 54.7703027,5.65136159 C55.5372,5.06871514 56.3524696,4.77722024 57.2168179,4.77722024 C57.3926534,4.77722024 57.5381238,4.77722024 57.6528759,4.77722024 C57.7672749,4.77722024 57.8686099,4.78614706 57.9568807,4.80297067 L57.9568807,7.3488301 Z" id="Shape"></path>
                        <path d="M67.8206196,17.6606766 C67.432934,17.8323462 66.9170791,18.0253028 66.2737611,18.2395464 C65.6297369,18.45379 64.9288663,18.5612551 64.1711492,18.5612551 C63.7124938,18.5612551 63.2849098,18.5008274 62.8883971,18.3813454 C62.4918844,18.2618634 62.1391541,18.0816104 61.8309122,17.841273 C61.5223173,17.6016223 61.2793959,17.2884971 61.1035603,16.9029272 C60.9270186,16.5170141 60.8391008,16.0504163 60.8391008,15.501417 L60.8391008,7.09166912 L58.9878844,7.09166912 L58.9878844,4.90562907 L60.8391008,4.90562907 L60.8391008,0.482391436 L63.7481553,0.482391436 L63.7481553,4.90562907 L66.7624286,4.90562907 L66.7624286,7.09166912 L63.7481553,7.09166912 L63.7481553,14.6008386 C63.7481553,15.0808266 63.8886825,15.4282858 64.1707961,15.6421861 C64.4529098,15.856773 64.7961069,15.9638948 65.202506,15.9638948 C65.6078457,15.9638948 65.9955314,15.8955703 66.3659159,15.7582347 C66.7363004,15.620899 67.0092339,15.5096572 67.1857756,15.4234791 L67.8206196,17.6606766 Z" id="Shape"></path>
                    </g>
                    <g id="Group" transform="translate(77.236276, 0.000000)">
                        <path d="M0.119919632,9.21848679 C0.119919632,8.11535379 0.317558439,7.01636402 0.712836053,5.92117221 C1.107762,4.82667093 1.68274322,3.84852515 2.43777973,2.98604433 C3.19246457,2.12425405 4.11911628,1.42163257 5.21667983,0.878525149 C6.31389171,0.335417732 7.56513526,0.0640366581 8.97005881,0.0640366581 C10.6380319,0.0640366581 12.0605389,0.438998295 13.2372284,1.18892157 C14.4135661,1.93884484 15.2825438,2.90007246 15.8452166,4.07260443 L14.7388613,4.693052 C14.4230612,4.05534101 14.0411471,3.5208653 13.5931189,3.08962489 C13.1454424,2.65872975 12.6622471,2.30966326 12.1442365,2.04208014 C11.6262259,1.77518755 11.0860601,1.58114663 10.524794,1.46030264 C9.96212122,1.33980392 9.40929523,1.27938193 8.86526101,1.27938193 C7.67098807,1.27938193 6.61703166,1.51658142 5.70444678,1.99063512 C4.79115855,2.4650341 4.01853852,3.08133845 3.38623501,3.83954817 C2.75428316,4.59844842 2.27565964,5.45575021 1.95071613,6.41283461 C1.62577261,7.36991901 1.46330085,8.33114663 1.46330085,9.29651748 C1.46330085,10.3827323 1.65636794,11.4171569 2.04285379,12.3997911 C2.42898797,13.3824254 2.95579034,14.2483589 3.62326091,14.9986275 C4.29002813,15.7485507 5.08058335,16.3475916 5.99351991,16.7957502 C6.90680813,17.244254 7.89043045,17.4679881 8.94403519,17.4679881 C9.50565294,17.4679881 10.0806342,17.3996249 10.6689789,17.2611722 C11.2573236,17.1234101 11.8280848,16.9079625 12.3812624,16.6144842 C12.9340884,16.3216965 13.447879,15.9463896 13.9222824,15.4895993 C14.3963342,15.0331543 14.7916119,14.4938448 15.1074119,13.873052 L16.2401425,14.4161594 C15.9243425,15.106006 15.4981178,15.7181671 14.9625237,16.2522975 C14.4269296,16.7867732 13.8255731,17.2349318 13.1581025,17.5971185 C12.4906319,17.9593052 11.784126,18.2306863 11.0378812,18.411607 C10.2912848,18.5925277 9.55840351,18.6829881 8.83853405,18.6829881 C7.5563435,18.6829881 6.38422581,18.4074638 5.32218097,17.8557246 C4.25943279,17.3039855 3.34192453,16.5844459 2.56965616,15.6964152 C1.79668446,14.8087298 1.19532794,13.7998551 0.765234954,12.6704817 C0.334438622,11.5421441 0.119919632,10.3910188 0.119919632,9.21848679 Z" id="Shape"></path>
                        <path d="M22.5874429,18.7869139 C21.9551394,18.7869139 21.3625747,18.6791901 20.809397,18.4633973 C20.2562194,18.248295 19.7730241,17.955162 19.3605147,17.5843436 C18.9476535,17.2138704 18.6272817,16.7739983 18.3993993,16.2654177 C18.1711651,15.7568372 18.0568722,15.2092413 18.0568722,14.6233205 C18.0568722,14.0373998 18.1968371,13.5025789 18.4781734,13.0195482 C18.7588065,12.537208 19.1540841,12.1190878 19.6633029,11.7651876 C20.1725218,11.4123231 20.7738783,11.1364535 21.4677242,10.9379241 C22.1612183,10.7400853 22.9296183,10.6406479 23.7725724,10.6406479 C24.5103771,10.6406479 25.2562702,10.7055584 26.0116584,10.8346888 C26.7663432,10.9641645 27.4422539,11.1412873 28.039742,11.3650213 L28.039742,10.0460955 C28.039742,8.77032822 27.6708397,7.75765558 26.9333867,7.00738704 C26.195582,6.25746377 25.1950795,5.88250213 23.9304725,5.88250213 C23.2457701,5.88250213 22.5301207,6.02060955 21.7838759,6.29647911 C21.0376312,6.57234868 20.2868147,6.96871697 19.5321299,7.48592924 L19.0053275,6.60653026 C20.7788017,5.43434356 22.4467748,4.84807758 24.0095983,4.84807758 C25.6599879,4.84807758 26.963982,5.31798806 27.921229,6.25746377 C28.8781244,7.19728474 29.3567479,8.49445865 29.3567479,10.1493308 L29.3567479,16.7177195 C29.3567479,17.1489599 29.5410233,17.3644075 29.9099256,17.3644075 L29.9099256,18.5279625 C29.8216563,18.5448806 29.7386621,18.5538576 29.6595362,18.5538576 C29.5804103,18.5538576 29.5055045,18.5538576 29.4355221,18.5538576 C29.119722,18.5538576 28.8295939,18.4461338 28.5661927,18.230341 C28.3027915,18.0148934 28.1712668,17.7348806 28.1712668,17.3896121 L28.1712668,16.2775021 C27.5389632,17.0881927 26.7357479,17.7089855 25.7609173,18.1398806 C24.7867901,18.5711211 23.7289653,18.7869139 22.5874429,18.7869139 Z M22.8511958,17.7524893 C23.8696335,17.7524893 24.8089453,17.5674254 25.669483,17.196607 C26.529669,16.8261338 27.1711159,16.3220418 27.5924171,15.6836402 C27.8909854,15.3390622 28.0400937,14.9944842 28.0400937,14.6492157 L28.0400937,12.2699702 C26.7055042,11.78763 25.3360994,11.545942 23.9308242,11.545942 C22.5610677,11.545942 21.455064,11.8218116 20.6117582,12.3732055 C19.7691558,12.9252899 19.3475029,13.6489727 19.3475029,14.5456351 C19.3475029,14.994139 19.4350688,15.4160571 19.610904,15.8127707 C19.7860359,16.2094842 20.0322053,16.549919 20.348357,16.834075 C20.6645088,17.1185763 21.0376312,17.3430009 21.4680758,17.5063129 C21.8981688,17.671006 22.3592088,17.7524893 22.8511958,17.7524893 Z" id="Shape"></path>
                        <path d="M39.8664201,6.24434356 C38.6193966,6.27921569 37.5397682,6.63656863 36.6268317,7.31743819 C35.7131918,7.99865303 35.0724482,8.93364024 34.7038975,10.1230904 L34.7038975,18.5279625 L33.3868916,18.5279625 L33.3868916,5.08078858 L34.6251233,5.08078858 L34.6251233,8.39087809 C35.0991751,7.44277067 35.7269069,6.67109548 36.507967,6.07619778 C37.2890272,5.48130009 38.1277612,5.14121057 39.0234659,5.05489344 C39.1989495,5.05489344 39.3568496,5.05075021 39.4978694,5.04177323 C39.6378343,5.03348679 39.7612706,5.02865303 39.8664201,5.02865303 L39.8664201,6.24434356 Z" id="Shape"></path>
                        <path d="M48.2161322,18.7869139 C47.2500934,18.7869139 46.3543887,18.6015047 45.5293697,18.2310315 C44.7036475,17.8605584 43.9883497,17.3516326 43.3827732,16.7052899 C42.7768449,16.0586019 42.3027931,15.3131671 41.9602661,14.468295 C41.617739,13.6241134 41.4464755,12.7188193 41.4464755,11.7531032 C41.4464755,10.805341 41.617739,9.91282182 41.9602661,9.07658142 C42.3027931,8.24068627 42.7722732,7.50802643 43.3694097,6.87825661 C43.9661945,6.24917732 44.6776238,5.7533717 45.5029944,5.391185 C46.3283651,5.02899829 47.2149263,4.84807758 48.1630299,4.84807758 C49.128717,4.84807758 50.0202017,5.03348679 50.8367805,5.40395993 C51.6533594,5.77477835 52.3598654,6.2747272 52.9570018,6.90380648 C53.5537866,7.53323103 54.0239701,8.26589088 54.3664971,9.10178602 C54.7090241,9.9383717 54.879936,10.8215686 54.879936,11.7524126 C54.879936,11.839075 54.8753643,11.9464535 54.8669242,12.0759292 C54.8581324,12.2050597 54.8539124,12.2872336 54.8539124,12.3214152 L42.8165837,12.3214152 C42.8689826,13.0972336 43.0536096,13.8174638 43.3694097,14.4810699 C43.6855614,15.1450213 44.0847074,15.7181671 44.5679027,16.2005072 C45.0507462,16.6831927 45.6084956,17.0629881 46.2404474,17.3385124 C46.8727509,17.6143819 47.5486616,17.7521441 48.2688827,17.7521441 C48.7432862,17.7521441 49.2127663,17.6872336 49.6780263,17.5581032 C50.1432864,17.4286275 50.573731,17.2521952 50.9690086,17.0281159 C51.3639346,16.8043819 51.7149017,16.5323103 52.0226134,16.2136275 C52.3296217,15.8945993 52.5712193,15.5455328 52.7470546,15.1660827 L53.9058088,15.4764791 C53.6951582,15.9591645 53.40081,16.4035251 53.0234676,16.8081799 C52.6457735,17.2135251 52.2068887,17.5625916 51.7064616,17.8553794 C51.2060345,18.1488576 50.6570769,18.3770801 50.0602921,18.5403922 C49.462804,18.7050853 48.848084,18.7869139 48.2161322,18.7869139 Z M53.589657,11.2873359 C53.5372581,10.4945993 53.3568512,9.77022592 53.0498428,9.11490622 C52.7424828,8.4599318 52.3472052,7.89541773 51.8643617,7.42101876 C51.3811664,6.94696505 50.8241204,6.5764919 50.1918169,6.30890878 C49.5595134,6.0420162 48.8832511,5.908052 48.1633816,5.908052 C47.4431605,5.908052 46.7672498,6.04167093 46.135298,6.30890878 C45.5029944,6.5764919 44.9452451,6.94696505 44.4624015,7.42101876 C43.9792063,7.89541773 43.5930721,8.46442029 43.3036473,9.12802643 C43.0138708,9.79197783 42.8422556,10.5115175 42.7898567,11.2873359 C42.7898567,11.2873359 53.589657,11.2873359 53.589657,11.2873359 Z" id="Shape"></path>
                    </g>
                </g>
            </g>
        </g>
    </g>
</svg>