<?xml version="1.0" encoding="UTF-8"?>
<svg width="73px" height="86px" viewBox="0 0 73 86" version="1.1" xmlns="http://www.w3.org/2000/svg" xmlns:xlink="http://www.w3.org/1999/xlink">
    <!-- Generator: Sketch 64 (93537) - https://sketch.com -->
    <title>shield</title>
    <desc>Created with Sketch.</desc>
    <g id="Page-1" stroke="none" stroke-width="1" fill="none" fill-rule="evenodd">
        <g id="4.1-Home-Segundo-Acesso" transform="translate(-1432.000000, -368.000000)" fill="#FFFFFF" fill-rule="nonzero">
            <g id="Group-2" transform="translate(1136.000000, 368.000000)">
                <g id="shield" transform="translate(296.000000, 0.000000)">
                    <path d="M36.5003304,27 C27.401826,27 20,34.401826 20,43.4996696 C20,52.598174 27.401826,60 36.5003304,60 C45.598174,60 53,52.598174 53,43.4996696 C53,34.401826 45.598174,27 36.5003304,27 Z M46.2965343,40.392396 L34.4759446,52.2129859 C33.9797586,52.7091717 33.3289688,52.957595 32.6788396,52.957595 C32.0287105,52.957595 31.3785814,52.7098325 30.8823954,52.2129859 L26.3651872,47.6957775 C25.3728152,46.7040663 25.3728152,45.095261 26.3651872,44.1028891 C27.3568983,43.1105171 28.9657037,43.1105171 29.9580755,44.1028891 L32.6788396,46.823653 L42.7036459,36.7995075 C43.695357,35.8071356 45.3041624,35.8071356 46.2965343,36.7995075 C47.2889062,37.7912186 47.2889062,39.400024 46.2965343,40.392396 Z" id="Shape"></path>
                    <path d="M72.9149329,23.3339971 L72.9123168,23.2670721 C72.8750369,22.4410086 72.8501836,21.567048 72.8351409,20.5946682 C72.7651592,15.8528407 69.0077348,11.9305155 64.2803782,11.6654403 C54.424088,11.1136376 46.7993615,7.8894312 40.2845302,1.51909732 L40.2289374,1.46595094 C38.1039815,-0.488650312 34.8985616,-0.488650312 32.7729515,1.46595094 L32.7173587,1.51909732 C26.2025276,7.8894312 18.5778009,11.1136376 8.72151092,11.6660964 C3.99480826,11.9305155 0.236729689,15.8528407 0.166748193,20.5953243 C0.152359365,21.5611428 0.126852003,22.4351035 0.0895721155,23.2670721 L0.0856479961,23.4225741 C-0.105983879,33.5052728 -0.344052367,46.0536957 3.84045627,57.4433985 C6.14134743,63.7067839 9.62603977,69.151323 14.1970823,73.6267632 C19.4031917,78.7235552 26.2221485,82.7698883 34.4642831,85.652909 C34.7324369,85.7467352 35.0110554,85.8228457 35.294906,85.8799288 C35.6951748,85.9599763 36.0980596,86 36.5009445,86 C36.9038293,86 37.3073682,85.9599763 37.7069829,85.8799288 C37.9908337,85.8228457 38.2714141,85.7460789 38.5408761,85.6515967 C46.7732002,82.7633271 53.5849625,78.7150254 58.7864939,73.6188895 C63.3555742,69.1421373 66.8402666,63.6962859 69.1431199,57.4315883 C73.3433252,46.0077667 73.1059108,33.4357235 72.9149329,23.3339971 Z M36.4996365,64.4337723 C24.7191788,64.4337723 15.1356209,54.8195481 15.1356209,43.0013942 C15.1356209,31.1832406 24.7191788,21.5690163 36.4996365,21.5690163 C48.27944,21.5690163 57.8636521,31.1832406 57.8636521,43.0013942 C57.8636521,54.8195481 48.27944,64.4337723 36.4996365,64.4337723 Z" id="Shape"></path>
                </g>
            </g>
        </g>
    </g>
</svg>